<svg width="400" height="400" viewBox="0 0 400 400" fill="none" xmlns="http://www.w3.org/2000/svg">
    <rect width="400" height="400" fill="black" />
    <path
        d="M119.457 127.639L118.862 128.573C115.805 133.923 113.937 139.782 113.343 145.557C111.474 162.201 119.372 179.27 134.912 188.186L155.292 199.99L221.698 238.288C242.588 250.347 269.253 243.213 281.226 222.323L281.821 221.389C283.519 218.502 284.793 215.445 285.727 212.388C285.727 212.812 285.727 213.152 285.642 213.492C286.576 210.435 287.086 207.293 287.425 204.066C287.425 203.811 287.51 203.642 287.595 203.387C287.68 202.368 287.765 201.349 287.765 200.33L287.765 199.65C287.765 198.716 287.765 197.782 287.68 196.848C287.51 194.555 286.916 192.262 286.406 190.054C286.321 189.629 286.321 189.205 286.152 188.78C284.623 182.836 281.736 177.317 277.745 172.391C276.046 170.268 274.093 168.315 271.97 166.532C270.527 165.343 269.083 164.24 267.554 163.221C266.96 162.881 266.535 162.371 265.941 162.032L179.069 111.845C158.18 99.7862 131.515 107.004 119.542 127.809L119.457 127.639Z"
        fill="white" />
    <path
        d="M134.828 211.71C113.938 223.769 106.805 250.433 118.863 271.238L119.458 272.172C131.516 293.062 158.18 300.195 178.985 288.137L241.655 251.961C234.352 251.961 226.879 250.008 220.086 246.102L147.651 204.237L134.913 211.54L134.828 211.71Z"
        fill="white" />
</svg>